<svg width="22" height="24" viewBox="0 0 22 24" fill="none" xmlns="http://www.w3.org/2000/svg">
<path d="M9.17835 0.00567665C9.53296 0.0454132 9.88757 0.0681197 10.2365 0.130563C10.837 0.238419 11.4433 0.357629 12.0381 0.499545C12.5471 0.624431 12.7187 1.05018 12.4671 1.50431C12.1582 2.06062 11.8436 2.61693 11.5291 3.17324C9.47577 2.45799 7.43392 2.47502 5.37491 3.17324C5.03746 2.57152 4.68857 1.97547 4.37972 1.36807C4.20242 1.0218 4.41404 0.630108 4.80868 0.516575C5.68376 0.266802 6.57028 0.107856 7.47967 0.0397365C7.56546 0.0340599 7.64554 0.0170299 7.73133 0C8.20605 0.00567665 8.6922 0.00567665 9.17835 0.00567665Z" fill="#735CF7"/>
<path d="M12.2388 6.14228C9.71651 4.85935 7.18851 4.90477 4.61475 6.16498C4.6605 5.92089 4.68338 5.7222 4.74629 5.53487C4.93504 4.96153 5.3354 4.56984 5.89591 4.34846C6.85106 3.96812 7.85197 3.90568 8.86431 3.94541C9.55637 3.9738 10.2427 4.05895 10.9004 4.30304C11.6669 4.58687 12.1416 5.1148 12.2502 5.93224C12.256 5.97198 12.2617 6.01739 12.2617 6.05713C12.256 6.08551 12.2502 6.10254 12.2388 6.14228Z" fill="#735CF7"/>
<path fill-rule="evenodd" clip-rule="evenodd" d="M8.42723 21.8268C7.05456 21.7984 5.68189 21.7246 4.34925 21.3727C3.38838 21.1229 2.4847 20.7369 1.72401 20.0841C0.740262 19.2326 0.248387 18.1313 0.128278 16.8654C-0.0947811 14.4188 0.65447 12.2333 2.02714 10.2351C2.87934 8.99189 3.94889 7.96442 5.3044 7.27187C7.6551 6.06842 9.97149 6.20466 12.1735 7.61814C13.9068 8.73179 15.1068 10.2357 15.8906 12.024C12.5394 12.3096 9.90843 15.1203 9.90843 18.5455C9.90843 19.6877 10.201 20.7616 10.7153 21.6963C10.6524 21.7023 10.5894 21.708 10.5263 21.7133C9.99965 21.7558 9.47622 21.7792 8.9536 21.8025L8.95308 21.8026C8.77773 21.8104 8.60248 21.8182 8.42723 21.8268Z" fill="#735CF7"/>
<path fill-rule="evenodd" clip-rule="evenodd" d="M16.4545 24C19.467 24 21.9091 21.558 21.9091 18.5455C21.9091 15.533 19.467 13.0909 16.4545 13.0909C13.4421 13.0909 11 15.533 11 18.5455C11 21.558 13.4421 24 16.4545 24ZM16.0038 21.7414L16.0031 21.7562C15.9997 21.6103 15.9369 21.5502 15.7905 21.4951C15.0929 21.2342 14.6137 20.5462 14.638 19.8641C14.644 19.6091 14.826 19.4193 15.0686 19.4074C15.3113 19.3955 15.5115 19.5675 15.5418 19.8226C15.5448 19.8374 15.5448 19.8522 15.5448 19.8671C15.5448 19.8819 15.5448 19.8967 15.5479 19.9115C15.5903 20.3564 15.9361 20.7063 16.385 20.736C16.8399 20.7715 17.2464 20.4691 17.3434 20.0242C17.4647 19.4726 17.0401 18.9863 16.4032 18.9626C15.5357 18.927 14.8321 18.3398 14.6744 17.5035C14.5166 16.7028 14.9534 15.8784 15.7298 15.57C15.9325 15.4918 15.9992 15.3998 16.0082 15.2296C16.1218 14.7429 16.8765 14.8673 16.9038 15.2272L16.9064 15.2147C16.9015 15.3826 16.9394 15.476 17.1311 15.5463C17.8226 15.8013 18.3079 16.5131 18.2715 17.1833C18.2594 17.4383 18.0713 17.6222 17.8287 17.6281C17.5921 17.634 17.398 17.462 17.3677 17.2248C17.3646 17.204 17.3646 17.1818 17.3646 17.1595C17.3646 17.1373 17.3646 17.1151 17.3616 17.0943C17.307 16.6732 16.9613 16.3411 16.5366 16.3055C16.0938 16.2699 15.6995 16.5427 15.5843 16.9638C15.4265 17.5273 15.8451 18.0551 16.476 18.0788C17.5072 18.1204 18.2837 18.8914 18.2715 19.8819C18.2655 20.6055 17.7984 21.246 17.0886 21.5248C17.0158 21.5544 16.9188 21.6256 16.9188 21.679C16.9178 21.7249 16.9169 21.7707 16.9162 21.8165C16.7432 22.3968 15.9855 22.2214 16.0038 21.7414Z" fill="#735CF7"/>
</svg>
