<svg width="24" height="24" viewBox="0 0 24 24" fill="none" xmlns="http://www.w3.org/2000/svg">
<path fill-rule="evenodd" clip-rule="evenodd" d="M11.9999 0C18.6278 0 23.9999 5.3721 23.9999 12C23.9999 18.6278 18.6278 23.9999 11.9999 23.9999C5.372 23.9999 -0.000114441 18.6278 -0.000114441 12C-0.000114441 5.3721 5.372 0 11.9999 0Z" fill="#F0B90B"/>
<path d="M6.59547 12L6.60412 15.1731L9.30028 16.7596V18.6173L5.02624 16.1106V11.0721L6.59547 12ZM6.59547 8.82692V10.676L5.02528 9.74711V7.89808L6.59547 6.96924L8.17335 7.89808L6.59547 8.82692ZM10.4262 7.89808L11.9964 6.96924L13.5743 7.89808L11.9964 8.82692L10.4262 7.89808Z" fill="white"/>
<path d="M7.73035 14.5154V12.6577L9.30055 13.5865V15.4356L7.73035 14.5154ZM10.4265 17.425L11.9967 18.3538L13.5746 17.425V19.274L11.9967 20.2029L10.4265 19.274V17.425ZM15.8265 7.89808L17.3967 6.96924L18.9746 7.89808V9.74712L17.3967 10.676V8.82693L15.8265 7.89808ZM17.3967 15.1731L17.4054 12L18.9755 11.0711V16.1096L14.7015 18.6163V16.7586L17.3967 15.1731Z" fill="white"/>
<path d="M16.2693 14.5154L14.6991 15.4356V13.5866L16.2693 12.6577V14.5154Z" fill="white"/>
<path d="M16.2707 9.4846L16.2794 11.3423L13.5755 12.9288V16.1096L12.0054 17.0298L10.4352 16.1096V12.9288L7.73132 11.3423V9.4846L9.30824 8.55576L11.9957 10.15L14.6996 8.55576L16.2775 9.4846H16.2707ZM7.73035 6.3125L11.9967 3.79712L16.2707 6.3125L14.7005 7.24134L11.9967 5.64711L9.30055 7.24134L7.73035 6.3125Z" fill="white"/>
</svg>
