<svg width="25" height="24" viewBox="0 0 25 24" fill="none" xmlns="http://www.w3.org/2000/svg">
<path fill-rule="evenodd" clip-rule="evenodd" d="M12.8333 18.002C16.147 18.002 18.8333 15.3157 18.8333 12.002C18.8333 8.68824 16.147 6.00195 12.8333 6.00195C9.51954 6.00195 6.83325 8.68824 6.83325 12.002C6.83325 15.3157 9.51954 18.002 12.8333 18.002ZM12.606 7.00195C12.9826 7.00195 13.2878 7.30721 13.2878 7.68377V12.2881L16.1261 13.91C16.453 14.0968 16.5666 14.5133 16.3798 14.8402C16.193 15.1672 15.7765 15.2808 15.4496 15.0939L12.2677 13.2758C12.0553 13.1544 11.9242 12.9284 11.9242 12.6838V7.68377C11.9242 7.30721 12.2295 7.00195 12.606 7.00195Z" fill="url(#paint0_linear_2098_1030)"/>
<path d="M12.8319 3.36559C9.36176 3.36559 6.36815 5.41167 4.99469 8.36559H6.50797C6.88452 8.36559 7.18978 8.67085 7.18978 9.04741C7.18978 9.42397 6.88452 9.72923 6.50797 9.72923H3.74245C3.24038 9.72923 2.83336 9.32221 2.83336 8.82014L2.46974 6.00195C2.46974 5.6254 2.775 5.32013 3.15156 5.32013C3.52811 5.32013 3.83337 5.6254 3.83337 6.00195L4.09532 7.01735C5.8309 4.05604 9.14923 2.00195 12.8319 2.00195C18.3555 2.00195 22.8334 6.47901 22.8334 12.002C22.8334 17.5249 18.3555 22.002 12.8319 22.002C7.39189 22.002 2.96628 17.6594 2.83357 12.2516C2.82433 11.8752 3.12201 11.5625 3.49846 11.5533C3.8749 11.5441 4.18756 11.8417 4.1968 12.2182C4.31139 16.8877 8.13361 20.6383 12.8319 20.6383C17.6026 20.6383 21.4697 16.7716 21.4697 12.002C21.4697 7.23232 17.6026 3.36559 12.8319 3.36559Z" fill="url(#paint1_linear_2098_1030)"/>
<defs>
<linearGradient id="paint0_linear_2098_1030" x1="18.2243" y1="6.00195" x2="18.2243" y2="16.2931" gradientUnits="userSpaceOnUse">
<stop stop-color="#735CF7"/>
<stop offset="1" stop-color="#482EDE"/>
</linearGradient>
<linearGradient id="paint1_linear_2098_1030" x1="21.8" y1="2.00195" x2="21.8" y2="19.1539" gradientUnits="userSpaceOnUse">
<stop stop-color="#735CF7"/>
<stop offset="1" stop-color="#482EDE"/>
</linearGradient>
</defs>
</svg>
