<svg width="25" height="24" viewBox="0 0 25 24" fill="none" xmlns="http://www.w3.org/2000/svg">
<path d="M12.8319 3.36559C9.36173 3.36559 6.36812 5.41167 4.99465 8.36559H7.15151C7.52807 8.36559 7.83333 8.67085 7.83333 9.04741C7.83333 9.42397 7.52807 9.72923 7.15151 9.72923H3.74242C3.24034 9.72923 2.83333 9.32221 2.83333 8.82014V5.41104C2.83333 5.03449 3.13859 4.72923 3.51515 4.72923C3.8917 4.72923 4.19696 5.03449 4.19696 5.41104V6.95334C5.93254 3.99203 9.1492 2.00195 12.8319 2.00195C18.3554 2.00195 22.8333 6.47901 22.8333 12.002C22.8333 17.5249 18.3554 22.002 12.8319 22.002C7.39185 22.002 2.96625 17.6594 2.83354 12.2516C2.8243 11.8752 3.12198 11.5625 3.49842 11.5533C3.87487 11.5441 4.18753 11.8417 4.19676 12.2182C4.31136 16.8877 8.13358 20.6383 12.8319 20.6383C17.6025 20.6383 21.4697 16.7716 21.4697 12.002C21.4697 7.23232 17.6025 3.36559 12.8319 3.36559Z" fill="#7886A0"/>
<path d="M13.2879 7.68377C13.2879 7.30721 12.9826 7.00195 12.6061 7.00195C12.2295 7.00195 11.9242 7.30721 11.9242 7.68377V12.6838C11.9242 12.9284 12.0553 13.1544 12.2678 13.2758L15.4496 15.0939C15.7765 15.2808 16.193 15.1672 16.3799 14.8402C16.5667 14.5133 16.4531 14.0968 16.1261 13.91L13.2879 12.2881V7.68377Z" fill="#7886A0"/>
</svg>
