<svg width="24" height="24" viewBox="0 0 24 24" fill="none" xmlns="http://www.w3.org/2000/svg">
<path fill-rule="evenodd" clip-rule="evenodd" d="M12 24C18.6274 24 24 18.6274 24 12C24 5.37258 18.6274 0 12 0C5.37258 0 0 5.37258 0 12C0 18.6274 5.37258 24 12 24ZM8.00278 13.6811C8.94187 14.6215 9.87276 15.5537 10.8246 16.5067L10.8249 16.5069C12.8179 14.5118 14.802 12.5258 16.7953 10.5307V12.1103H18.1594V8H14.0526V9.37841H15.9396C15.094 10.2252 14.2484 11.0721 13.4014 11.9204C12.5309 12.7922 11.6588 13.6657 10.7833 14.5423L7.89862 11.6536L5 14.5533C5.31203 14.8653 5.63126 15.1844 5.9534 15.5067L7.89053 13.5687L8.00278 13.6811Z" fill="#735CF7"/>
</svg>
