<svg width="25" height="24" viewBox="0 0 25 24" fill="none" xmlns="http://www.w3.org/2000/svg">
<path fill-rule="evenodd" clip-rule="evenodd" d="M3.5 6.50195C3.5 3.87674 3.52811 3.00195 7 3.00195C10.4719 3.00195 10.5 3.87674 10.5 6.50195C10.5 9.12717 10.5111 10.002 7 10.002C3.48893 10.002 3.5 9.12717 3.5 6.50195Z" stroke="#7886A0" stroke-width="1.5" stroke-linecap="round" stroke-linejoin="round"/>
<path fill-rule="evenodd" clip-rule="evenodd" d="M14.5 6.50195C14.5 3.87674 14.5281 3.00195 18 3.00195C21.4719 3.00195 21.5 3.87674 21.5 6.50195C21.5 9.12717 21.5111 10.002 18 10.002C14.4889 10.002 14.5 9.12717 14.5 6.50195Z" stroke="#7886A0" stroke-width="1.5" stroke-linecap="round" stroke-linejoin="round"/>
<path fill-rule="evenodd" clip-rule="evenodd" d="M3.5 17.502C3.5 14.8767 3.52811 14.002 7 14.002C10.4719 14.002 10.5 14.8767 10.5 17.502C10.5 20.1272 10.5111 21.002 7 21.002C3.48893 21.002 3.5 20.1272 3.5 17.502Z" stroke="#7886A0" stroke-width="1.5" stroke-linecap="round" stroke-linejoin="round"/>
<path fill-rule="evenodd" clip-rule="evenodd" d="M14.5 17.502C14.5 14.8767 14.5281 14.002 18 14.002C21.4719 14.002 21.5 14.8767 21.5 17.502C21.5 20.1272 21.5111 21.002 18 21.002C14.4889 21.002 14.5 20.1272 14.5 17.502Z" stroke="#7886A0" stroke-width="1.5" stroke-linecap="round" stroke-linejoin="round"/>
</svg>
