<svg width="16" height="16" viewBox="0 0 16 16" fill="none" xmlns="http://www.w3.org/2000/svg">
<path d="M12.6667 1.33615H3.33333C2.59333 1.33615 2 1.93615 2 2.66948V12.0028C2 12.7362 2.59333 13.3362 3.33333 13.3362H6L8 15.3362L10 13.3362H12.6667C13.4 13.3362 14 12.7362 14 12.0028V2.66948C14 1.93615 13.4 1.33615 12.6667 1.33615ZM8.66667 12.0028H7.33333V10.6695H8.66667V12.0028ZM10.0467 6.83615L9.44667 7.44948C8.96667 7.93615 8.66667 8.33615 8.66667 9.33615H7.33333V9.00282C7.33333 8.26948 7.63333 7.60282 8.11333 7.11615L8.94 6.27615C9.18667 6.03615 9.33333 5.70282 9.33333 5.33615C9.33333 4.60282 8.73333 4.00282 8 4.00282C7.26667 4.00282 6.66667 4.60282 6.66667 5.33615H5.33333C5.33333 3.86282 6.52667 2.66948 8 2.66948C9.47333 2.66948 10.6667 3.86282 10.6667 5.33615C10.6667 5.92282 10.4267 6.45615 10.0467 6.83615Z" fill="#7886A0"/>
</svg>
