<svg width="24" height="24" viewBox="0 0 24 24" fill="none" xmlns="http://www.w3.org/2000/svg">
<path fill-rule="evenodd" clip-rule="evenodd" d="M12 24C18.6274 24 24 18.6274 24 12C24 5.37258 18.6274 0 12 0C5.37258 0 0 5.37258 0 12C0 18.6274 5.37258 24 12 24ZM5.75 12C5.75 8.54826 8.52417 5.75 12 5.75C14.1118 5.75 15.6977 6.627 16.7704 7.52192C17.0229 7.73251 17.2457 7.94317 17.4386 8.142H15.892C15.4778 8.142 15.142 8.47779 15.142 8.892C15.142 9.30621 15.4778 9.642 15.892 9.642H19C19.4142 9.642 19.75 9.30621 19.75 8.892V5.392C19.75 4.97779 19.4142 4.642 19 4.642C18.5858 4.642 18.25 4.97779 18.25 5.392V6.83401C18.0909 6.68164 17.9181 6.52587 17.7313 6.37008C16.4713 5.319 14.5572 4.25 12 4.25C7.69183 4.25 4.25 7.72374 4.25 12C4.25 12.4142 4.58579 12.75 5 12.75C5.41421 12.75 5.75 12.4142 5.75 12ZM19.75 12C19.75 11.5858 19.4142 11.25 19 11.25C18.5858 11.25 18.25 11.5858 18.25 12C18.25 15.4498 15.4498 18.25 12 18.25C10.3285 18.25 8.94526 17.4072 7.94337 16.4985C7.70368 16.2811 7.48968 16.0633 7.30302 15.858H8.941C9.35521 15.858 9.691 15.5222 9.691 15.108C9.691 14.6938 9.35521 14.358 8.941 14.358H5.777C5.36279 14.358 5.027 14.6938 5.027 15.108V18.608C5.027 19.0222 5.36279 19.358 5.777 19.358C6.19121 19.358 6.527 19.0222 6.527 18.608V17.2186C6.65483 17.3475 6.7911 17.4784 6.93563 17.6095C8.07924 18.6468 9.80754 19.75 12 19.75C16.2782 19.75 19.75 16.2782 19.75 12Z" fill="#735CF7"/>
</svg>
