<svg width="25" height="24" viewBox="0 0 25 24" fill="none" xmlns="http://www.w3.org/2000/svg">
<path fill-rule="evenodd" clip-rule="evenodd" d="M17.6796 4.41195C17.6796 3.08195 18.7596 2.00195 20.0896 2.00195C21.4196 2.00195 22.4996 3.08195 22.4996 4.41195C22.4996 5.74195 21.4196 6.82195 20.0896 6.82195C18.7596 6.82195 17.6796 5.74195 17.6796 4.41195ZM13.8295 14.7613L16.7195 11.0323L16.6795 11.0523C16.8395 10.8323 16.8695 10.5523 16.7595 10.3023C16.6505 10.0523 16.4095 9.88225 16.1505 9.86225C15.8795 9.83225 15.6105 9.95225 15.4495 10.1723L13.0305 13.3023L10.2595 11.1223C10.0895 10.9923 9.88951 10.9413 9.68951 10.9623C9.49051 10.9923 9.31051 11.1013 9.18951 11.2613L6.23051 15.1123L6.16951 15.2023C5.99951 15.5213 6.07951 15.9313 6.37951 16.1523C6.51951 16.2423 6.66951 16.3023 6.83951 16.3023C7.07051 16.3123 7.28951 16.1913 7.42951 16.0023L9.93951 12.7713L12.7895 14.9123L12.8795 14.9713C13.1995 15.1413 13.5995 15.0623 13.8295 14.7613ZM15.9495 3.78225C15.9095 4.03225 15.8895 4.28225 15.8895 4.53225C15.8895 6.78225 17.7095 8.60125 19.9495 8.60125C20.1995 8.60125 20.4395 8.57225 20.6895 8.53225V16.6013C20.6895 19.9923 18.6895 22.0023 15.2895 22.0023H7.90051C4.49951 22.0023 2.49951 19.9923 2.49951 16.6013V9.20225C2.49951 5.80225 4.49951 3.78225 7.90051 3.78225H15.9495Z" fill="url(#paint0_linear_2098_6776)"/>
<defs>
<linearGradient id="paint0_linear_2098_6776" x1="21.4847" y1="2.00195" x2="21.4847" y2="19.1541" gradientUnits="userSpaceOnUse">
<stop stop-color="#735CF7"/>
<stop offset="1" stop-color="#482EDE"/>
</linearGradient>
</defs>
</svg>
