<svg width="25" height="24" viewBox="0 0 25 24" fill="none" xmlns="http://www.w3.org/2000/svg">
<path fill-rule="evenodd" clip-rule="evenodd" d="M20.7871 5.24578C21.1761 5.24578 21.5 5.56877 21.5 5.97977V6.35976C21.5 6.76076 21.1761 7.09376 20.7871 7.09376H4.21385C3.82386 7.09376 3.5 6.76076 3.5 6.35976V5.97977C3.5 5.56877 3.82386 5.24578 4.21385 5.24578H7.12957C7.72185 5.24578 8.2373 4.82478 8.37054 4.23079L8.52323 3.54879C8.76054 2.6198 9.5415 2.00281 10.4353 2.00281H14.5647C15.4488 2.00281 16.2385 2.6198 16.467 3.49979L16.6304 4.22979C16.7627 4.82478 17.2781 5.24578 17.8714 5.24578H20.7871ZM19.3058 19.1368C19.6102 16.2999 20.1432 9.55993 20.1432 9.49193C20.1626 9.28593 20.0955 9.09094 19.9623 8.93394C19.8193 8.78694 19.6384 8.69994 19.4391 8.69994H5.56852C5.36818 8.69994 5.17756 8.78694 5.04529 8.93394C4.91108 9.09094 4.84494 9.28593 4.85467 9.49193C4.85646 9.50443 4.87558 9.74184 4.90755 10.1387C5.04958 11.902 5.44517 16.813 5.70079 19.1368C5.88168 20.8488 7.00498 21.9248 8.63206 21.9638C9.88763 21.9928 11.1811 22.0028 12.5038 22.0028C13.7496 22.0028 15.0149 21.9928 16.3094 21.9638C17.9929 21.9348 19.1152 20.8778 19.3058 19.1368Z" fill="#F44949"/>
</svg>
