<svg width="24" height="24" viewBox="0 0 24 24" fill="none" xmlns="http://www.w3.org/2000/svg">
<path fill-rule="evenodd" clip-rule="evenodd" d="M12 24C18.6274 24 24 18.6274 24 12C24 5.37258 18.6274 0 12 0C5.37258 0 0 5.37258 0 12C0 18.6274 5.37258 24 12 24ZM14.7098 7.17699C14.4883 6.941 14.1291 6.941 13.9076 7.17699C13.6861 7.41297 13.6861 7.79557 13.9076 8.03156L16.063 10.3276H6.56725C6.25397 10.3276 6 10.5982 6 10.9319C6 11.2656 6.25397 11.5362 6.56725 11.5362H17.4324C17.6619 11.5362 17.8687 11.3889 17.9565 11.1631C18.0443 10.9373 17.9958 10.6774 17.8335 10.5046L14.7098 7.17699ZM6.56756 12.4638C6.33813 12.4638 6.1313 12.6111 6.0435 12.8369C5.9557 13.0627 6.00423 13.3226 6.16646 13.4954L9.2902 16.823C9.51173 17.059 9.87089 17.059 10.0924 16.823C10.3139 16.587 10.3139 16.2044 10.0924 15.9684L7.93702 13.6724H17.4328C17.746 13.6724 18 13.4018 18 13.0681C18 12.7344 17.746 12.4638 17.4328 12.4638H6.56756Z" fill="#735CF7"/>
</svg>
